<svg class="fig1" viewBox="25 0 200 200" xmlns="http://www.w3.org/2000/svg">
                            <path fill="#8B72B6" d="M46.7,-61.3C61.1,-53.9,73.7,-40.9,76,-26.4C78.3,-11.9,70.4,4.2,64.4,20.4C58.4,36.5,54.2,52.7,43.8,61.7C33.4,70.7,16.7,72.4,1.5,70.3C-13.6,68.1,-27.3,62.2,-37.6,53.2C-47.9,44.2,-55,32.2,-62.1,18.3C-69.2,4.4,-76.3,-11.3,-75.4,-27.6C-74.4,-43.9,-65.4,-60.8,-51.5,-68.4C-37.6,-76.1,-18.8,-74.5,-1.3,-72.7C16.2,-70.9,32.3,-68.8,46.7,-61.3Z" transform="translate(120 100)"></path>
                        </svg>